# xmcd
#
# Track frame offsets: 
#        150
#        17030
#        35985
#        53435
#        68855
#        83892
#        106787
#        123777
#        141350
#        157157
#        176520
#        192792
#        204600
#        221592
#        239750
#        256380
#        273487
#        290797
#        311590
#
# Disc length: 4344 seconds
#
# Revision: 1
# Processed by: cddbd v1.4PL0 Copyright (c) Steve Scherf et al.
# Submitted via: ExactAudioCopy v0.90a11
#
DISCID=2310f613
DTITLE=Kenny Rogers - After Dark
DYEAR=1900
DGENRE=
TTITLE0=Ain't No Sunshine
TTITLE1=The Kind Of Fool Love Makes
TTITLE2=Let It Be Me
TTITLE3=You Don't Know Me
TTITLE4=How Sweet It Is (To Be Loved By You)
TTITLE5=I Will Remember You
TTITLE6=Buy Me A Rose
TTITLE7=Three Times A Lady
TTITLE8=Share Your Love With Me
TTITLE9=I Can't Make You Love Me
TTITLE10=I Don't Need You
TTITLE11=This Masquerade
TTITLE12=Since I Fell For You
TTITLE13=Don't Fall In Love With A Dreamer
TTITLE14=Loving Arms
TTITLE15=Love Don't Live Here Anymore
TTITLE16=You Looked So Beautiful
TTITLE17=Small Dark Cloud
TTITLE18=The Greatest
EXTD=
EXTT0=
EXTT1=
EXTT2=
EXTT3=
EXTT4=
EXTT5=
EXTT6=
EXTT7=
EXTT8=
EXTT9=
EXTT10=
EXTT11=
EXTT12=
EXTT13=
EXTT14=
EXTT15=
EXTT16=
EXTT17=
EXTT18=
PLAYORDER=
